<svg xmlns="http://www.w3.org/2000/svg" viewBox="0 0 100 100" fill="none">
  <!-- Вариант A: Два перекрывающихся речевых пузыря (диалог) -->
  <defs>
    <linearGradient id="a-g" x1="0" y1="0" x2="100" y2="100">
      <stop offset="0" stop-color="#8b5cf6"/>
      <stop offset="1" stop-color="#2563eb"/>
    </linearGradient>
  </defs>
  <!-- Первый пузырь (сзади) -->
  <path d="M28 18h30c8.84 0 16 6.72 16 15s-7.16 15-16 15h-6l-12 8 2-10c-5.16-1.84-8.8-6.16-8.8-11.2C33.2 25.4 37.2 20 44 18z" fill="url(#a-g)" opacity="0.7" rx="10"/>
  <!-- Второй пузырь (спереди) -->
  <path d="M72 32h26c7.18 0 13 5.82 13 13s-5.82 13-13 13h-5l-10 6.5 1.6-8.1c4.2-1.5 7.2-5 7.2-9.1 0-5.38-4.38-9.76-9.76-9.76H72c-1.1 0-2-.9-2-2v-3.54c0-1.1.9-2 2-2z" fill="url(#a-g)" transform="translate(-18,-6)"/>
</svg>
